<svg width="24" height="24" viewBox="0 0 24 24" fill="none" xmlns="http://www.w3.org/2000/svg">
<path fill-rule="evenodd" clip-rule="evenodd" d="M12.468 6.11044C13.9402 6.11044 15.1336 7.3039 15.1336 8.77611C15.1336 10.2483 13.9402 11.4418 12.468 11.4418C10.9958 11.4418 9.8023 10.2483 9.8023 8.77611C9.8023 7.3039 10.9958 6.11044 12.468 6.11044ZM13.1336 8.77611C13.1336 8.40847 12.8356 8.11044 12.468 8.11044C12.1003 8.11044 11.8023 8.40847 11.8023 8.77611C11.8023 9.14374 12.1003 9.44177 12.468 9.44177C12.8356 9.44177 13.1336 9.14374 13.1336 8.77611Z" fill="#0088FF"/>
<path fill-rule="evenodd" clip-rule="evenodd" d="M3.13965 5.94629C3.13965 3.73715 4.93051 1.94629 7.13965 1.94629H17.7963C20.0054 1.94629 21.7963 3.73715 21.7963 5.94629V11.6059C21.7963 12.1509 21.6873 12.6704 21.4899 13.1439L21.2097 15.2037C21.0988 16.0189 20.7528 16.7367 20.253 17.3042C20.2398 17.3456 20.2237 17.3866 20.2047 17.4269L19.257 19.4355C18.1909 21.6953 15.3369 22.4353 13.307 20.9783L4.71716 14.8127C4.64481 14.7607 4.58146 14.7009 4.52743 14.6353C3.67756 13.9017 3.13965 12.8167 3.13965 11.6059V5.94629ZM17.7963 15.6059C18.2576 15.6059 18.7007 15.5278 19.1131 15.3841C18.75 16.3306 17.7058 16.8829 16.6847 16.5841L13.341 15.6059H17.7963ZM5.83943 4.42656C5.41109 4.79337 5.13965 5.33813 5.13965 5.94629V11.6059C5.13965 12.2141 5.41109 12.7588 5.83943 13.1257C5.71307 12.9582 5.63814 12.7498 5.63814 12.5238C5.63814 11.9716 6.08586 11.5238 6.63814 11.5238H8.3038C8.85609 11.5238 9.3038 11.9716 9.3038 12.5238C9.3038 13.0761 8.85609 13.5238 8.3038 13.5238H6.63814C6.61215 13.5238 6.58639 13.5229 6.5609 13.5209C6.74411 13.5762 6.93841 13.6059 7.13965 13.6059H17.7963C17.9975 13.6059 18.1918 13.5762 18.375 13.5209C18.3495 13.5229 18.3238 13.5238 18.2978 13.5238H16.6321C16.0798 13.5238 15.6321 13.0761 15.6321 12.5238C15.6321 11.9716 16.0798 11.5238 16.6321 11.5238H18.2978C18.8501 11.5238 19.2978 11.9716 19.2978 12.5238C19.2978 12.7498 19.2229 12.9582 19.0965 13.1257C19.5248 12.7588 19.7963 12.2141 19.7963 11.6059V5.94629C19.7963 5.33813 19.5248 4.79337 19.0965 4.42656C19.2229 4.594 19.2978 4.80243 19.2978 5.02837C19.2978 5.58065 18.8501 6.02837 18.2978 6.02837H16.6321C16.0798 6.02837 15.6321 5.58065 15.6321 5.02837C15.6321 4.47608 16.0798 4.02837 16.6321 4.02837H18.2978C18.3238 4.02837 18.3495 4.02936 18.375 4.03131C18.1918 3.97601 17.9975 3.94629 17.7963 3.94629H7.13965C6.93841 3.94629 6.74411 3.97601 6.5609 4.03131C6.58639 4.02936 6.61215 4.02837 6.63814 4.02837H8.3038C8.85609 4.02837 9.3038 4.47608 9.3038 5.02837C9.3038 5.58065 8.85609 6.02837 8.3038 6.02837H6.63814C6.08586 6.02837 5.63814 5.58065 5.63814 5.02837C5.63814 4.80243 5.71307 4.594 5.83943 4.42656ZM17.4078 18.6632C16.9863 18.68 16.5537 18.6297 16.1231 18.5037L11.3395 17.1042L14.4732 19.3535C15.4635 20.0643 16.846 19.7294 17.4078 18.6632Z" fill="#0088FF"/>
</svg>
