<svg width="24" height="25" viewBox="0 0 24 25" fill="none" xmlns="http://www.w3.org/2000/svg">
<path fill-rule="evenodd" clip-rule="evenodd" d="M9.87445 3.30756C8.31235 1.74546 5.77969 1.74546 4.21759 3.30756L3.68206 3.84309C2.94369 4.58146 2.43866 5.68793 2.72673 6.88653C3.16834 8.72404 4.49723 12.0725 8.46023 16.0355C12.4232 19.9985 15.7717 21.3274 17.6092 21.769C18.8078 22.0571 19.9143 21.552 20.6526 20.8137L21.1882 20.2781C22.7503 18.716 22.7503 16.1834 21.1882 14.6213L20.2593 13.6924C18.986 12.4191 17.0189 12.1536 15.4536 13.0437L15.3571 13.0985C14.7157 13.4633 13.9788 13.4335 13.4568 13.0557C13.0355 12.7508 12.6329 12.43 12.3493 12.1464C12.0657 11.8628 11.7449 11.4602 11.44 11.039C11.0622 10.5169 11.0324 9.78004 11.3972 9.13861L11.4521 9.04207C12.3421 7.47677 12.0766 5.5097 10.8033 4.23644L9.87445 3.30756ZM5.63181 4.72177C6.41286 3.94072 7.67918 3.94072 8.46023 4.72177L9.38911 5.65065C10.0257 6.28728 10.1585 7.27082 9.71348 8.05347L9.65859 8.15C8.95368 9.38966 8.92895 10.9805 9.81983 12.2115C10.1471 12.6637 10.5403 13.1658 10.9351 13.5606C11.3299 13.9554 11.832 14.3487 12.2842 14.6759C13.5152 15.5668 15.1061 15.542 16.3457 14.8371L16.4422 14.7822C17.2249 14.3372 18.2084 14.47 18.8451 15.1066L19.7739 16.0355C20.555 16.8165 20.555 18.0829 19.7739 18.8639L19.2384 19.3994C18.8516 19.7863 18.4252 19.9082 18.0765 19.8244C16.6075 19.4713 13.5841 18.3309 9.87445 14.6213C6.16478 10.9116 5.02441 7.88822 4.67135 6.41918C4.58756 6.07053 4.70942 5.64416 5.09627 5.25731L5.63181 4.72177Z" fill="#4149EB"/>
</svg>
