<svg width="32" height="32" viewBox="0 0 32 32" fill="none" xmlns="http://www.w3.org/2000/svg">
<path d="M7.05687 19.9462C6.53617 20.4669 6.53617 21.3111 7.05687 21.8318C7.57756 22.3525 8.42178 22.3525 8.94248 21.8318L13.4234 17.3509L15.1563 18.7662C15.7008 19.2109 16.4971 19.1564 16.9759 18.6416L21.3368 13.9537L23.027 15.7565C23.5306 16.2937 24.3744 16.3209 24.9116 15.8173C25.4488 15.3136 25.476 14.4699 24.9724 13.9326L22.3057 11.0882C22.053 10.8187 21.6999 10.6661 21.3304 10.6668C20.961 10.6675 20.6084 10.8215 20.3568 11.092L15.8748 15.91L14.1764 14.523C13.6462 14.09 12.8742 14.1288 12.3902 14.6129L7.05687 19.9462Z" fill="#475367"/>
<path fill-rule="evenodd" clip-rule="evenodd" d="M6.66634 4C3.72082 4 1.33301 6.38782 1.33301 9.33334V22.6667C1.33301 25.6122 3.72082 28 6.66634 28H25.333C28.2785 28 30.6663 25.6122 30.6663 22.6667V9.33333C30.6663 6.38782 28.2785 4 25.333 4H6.66634ZM3.99967 9.33334C3.99967 7.86058 5.19358 6.66667 6.66634 6.66667H25.333C26.8058 6.66667 27.9997 7.86057 27.9997 9.33333V22.6667C27.9997 24.1394 26.8058 25.3333 25.333 25.3333H6.66634C5.19358 25.3333 3.99967 24.1394 3.99967 22.6667V9.33334Z" fill="#475367"/>
</svg>
