<svg width="24" height="25" viewBox="0 0 24 25" fill="none" xmlns="http://www.w3.org/2000/svg">
<path d="M6 10.5C6 9.94772 6.44772 9.5 7 9.5H12C12.5523 9.5 13 9.94772 13 10.5C13 11.0523 12.5523 11.5 12 11.5H7C6.44772 11.5 6 11.0523 6 10.5Z" fill="#1ABA1A"/>
<path d="M7 13.5C6.44772 13.5 6 13.9477 6 14.5C6 15.0523 6.44772 15.5 7 15.5H16C16.5523 15.5 17 15.0523 17 14.5C17 13.9477 16.5523 13.5 16 13.5H7Z" fill="#1ABA1A"/>
<path fill-rule="evenodd" clip-rule="evenodd" d="M2 12.5C2 6.97715 6.47715 2.5 12 2.5C17.5228 2.5 22 6.97715 22 12.5C22 18.0228 17.5228 22.5 12 22.5C11.1677 22.5 10.3578 22.3981 9.58269 22.2056L4.03877 21.5126C2.84049 21.3628 2.00773 20.2459 2.20626 19.0547L2.54915 16.9974C2.55113 16.9854 2.55138 16.9733 2.54988 16.9613L2.29438 14.9173C2.1019 14.1422 2 13.3323 2 12.5ZM12 4.5C7.58172 4.5 4 8.08172 4 12.5C4 13.1866 4.08625 13.8515 4.24801 14.4853L4.26355 14.5462L4.53444 16.7132C4.55992 16.9171 4.55571 17.1235 4.52193 17.3262L4.17905 19.3835C4.16737 19.4536 4.21635 19.5193 4.28684 19.5281L9.95384 20.2364L10.0147 20.252C10.6485 20.4137 11.3135 20.5 12 20.5C16.4183 20.5 20 16.9183 20 12.5C20 8.08172 16.4183 4.5 12 4.5Z" fill="#1ABA1A"/>
</svg>
