<svg width="32" height="32" viewBox="0 0 32 32" fill="none" xmlns="http://www.w3.org/2000/svg">
<path d="M9.40114 7.51504C8.88044 6.99434 8.03622 6.99434 7.51552 7.51504C6.99483 8.03574 6.99483 8.87996 7.51552 9.40065L14.1152 16.0003L7.51552 22.6C6.99483 23.1207 6.99483 23.9649 7.51552 24.4856C8.03622 25.0063 8.88044 25.0063 9.40114 24.4856L16.0008 17.8859L22.6005 24.4856C23.1212 25.0063 23.9654 25.0063 24.4861 24.4856C25.0068 23.9649 25.0068 23.1207 24.4861 22.6L17.8864 16.0003L24.4861 9.40065C25.0068 8.87996 25.0068 8.03574 24.4861 7.51504C23.9654 6.99434 23.1212 6.99434 22.6005 7.51504L16.0008 14.1147L9.40114 7.51504Z" fill="#344054"/>
</svg>
