<svg width="32" height="32" viewBox="0 0 32 32" fill="none" xmlns="http://www.w3.org/2000/svg">
<path d="M9.33333 15.9999C9.33333 15.2635 9.93029 14.6666 10.6667 14.6666H21.3333C22.0697 14.6666 22.6667 15.2635 22.6667 15.9999C22.6667 16.7363 22.0697 17.3333 21.3333 17.3333H10.6667C9.93029 17.3333 9.33333 16.7363 9.33333 15.9999Z" fill="#475367"/>
<path d="M10.6667 21.3333C9.93029 21.3333 9.33333 21.9302 9.33333 22.6666C9.33333 23.403 9.93029 23.9999 10.6667 23.9999H21.3333C22.0697 23.9999 22.6667 23.403 22.6667 22.6666C22.6667 21.9302 22.0697 21.3333 21.3333 21.3333H10.6667Z" fill="#475367"/>
<path fill-rule="evenodd" clip-rule="evenodd" d="M9.33333 1.33325C6.38782 1.33325 4 3.72107 4 6.66658V25.3333C4 28.2788 6.38781 30.6666 9.33333 30.6666H22.6667C25.6122 30.6666 28 28.2788 28 25.3333V12.1148C28 10.8671 27.5626 9.65895 26.7638 8.70047L22.2237 3.25227C21.2104 2.03631 19.7093 1.33325 18.1265 1.33325H9.33333ZM6.66667 6.66658C6.66667 5.19383 7.86057 3.99992 9.33333 3.99992H17.3333V7.99992C17.3333 10.9454 19.7211 13.3333 22.6667 13.3333H25.3333V25.3333C25.3333 26.806 24.1394 27.9999 22.6667 27.9999H9.33333C7.86057 27.9999 6.66667 26.806 6.66667 25.3333V6.66658ZM24.9058 10.6666C24.8478 10.5769 24.7842 10.4904 24.7153 10.4076L20.1751 4.95943C20.1196 4.8928 20.0611 4.82925 20 4.76891V7.99992C20 9.47268 21.1939 10.6666 22.6667 10.6666H24.9058Z" fill="#475367"/>
</svg>
