<svg width="56" height="57" viewBox="0 0 56 57" fill="none" xmlns="http://www.w3.org/2000/svg">
<circle cx="28" cy="28.5" r="28" fill="#F0F2F5"/>
<path d="M20.9998 25.5833C20.9998 22.0394 23.8727 19.1666 27.4165 19.1666C30.5557 19.1666 33.1705 21.422 33.7247 24.401C33.8024 24.8188 34.1011 25.1613 34.5044 25.295C36.827 26.0653 38.4998 28.2554 38.4998 30.8333C38.4998 34.0549 35.8882 36.6666 32.6665 36.6666C32.0222 36.6666 31.4998 37.1889 31.4998 37.8333C31.4998 38.4776 32.0222 38.9999 32.6665 38.9999C37.1768 38.9999 40.8332 35.3436 40.8332 30.8333C40.8332 27.4587 38.7871 24.5647 35.8705 23.3194C34.8725 19.5843 31.4669 16.8333 27.4165 16.8333C22.584 16.8333 18.6665 20.7508 18.6665 25.5833C18.6665 25.7002 18.6688 25.8168 18.6734 25.9327C16.5787 27.1412 15.1665 29.4046 15.1665 31.9999C15.1665 35.8659 18.3005 38.9999 22.1665 38.9999C22.8108 38.9999 23.3332 38.4776 23.3332 37.8333C23.3332 37.1889 22.8108 36.6666 22.1665 36.6666C19.5892 36.6666 17.4998 34.5772 17.4998 31.9999C17.4998 30.0664 18.676 28.4048 20.3566 27.6969C20.8429 27.492 21.1312 26.9862 21.0596 26.4634C21.0202 26.1762 20.9998 25.8824 20.9998 25.5833Z" fill="#475367"/>
<path d="M27.2247 31.1279C27.6668 30.735 28.3329 30.735 28.7749 31.1279L30.5249 32.6835C31.0065 33.1116 31.0499 33.849 30.6218 34.3306C30.2473 34.7519 29.6361 34.8378 29.1665 34.5661V40.1666C29.1665 40.8109 28.6442 41.3333 27.9998 41.3333C27.3555 41.3333 26.8332 40.8109 26.8332 40.1666V34.5661C26.3636 34.8378 25.7523 34.7519 25.3779 34.3306C24.9498 33.849 24.9932 33.1116 25.4747 32.6835L27.2247 31.1279Z" fill="#475367"/>
</svg>
