<svg width="24" height="24" viewBox="0 0 24 24" fill="none" xmlns="http://www.w3.org/2000/svg">
<path d="M11.9993 5.99999C12.5516 5.99999 12.9993 6.4477 12.9993 6.99999V14C12.9993 14.5523 12.5516 15 11.9993 15C11.447 15 10.9993 14.5523 10.9993 14V6.99999C10.9993 6.4477 11.447 5.99999 11.9993 5.99999Z" fill="#FF8D28"/>
<path d="M11.9993 18C11.3089 18 10.7493 17.4403 10.7493 16.75C10.7493 16.0596 11.3089 15.5 11.9993 15.5C12.6896 15.5 13.2493 16.0596 13.2493 16.75C13.2493 17.4403 12.6896 18 11.9993 18Z" fill="#FF8D28"/>
<path fill-rule="evenodd" clip-rule="evenodd" d="M14.0064 1.00821C12.7652 0.288199 11.2334 0.288198 9.99218 1.00821L6.74356 2.8927L3.48367 4.7659C2.23952 5.48081 1.47363 6.80737 1.47657 8.2423L1.48428 11.9979V12.002L1.47657 15.7577C1.47363 17.1926 2.23952 18.5192 3.48367 19.2341L6.74 21.1052L6.74356 21.1073L9.99218 22.9918C11.2334 23.7118 12.7652 23.7118 14.0064 22.9918L17.255 21.1073L17.2586 21.1052L20.5149 19.2341C21.759 18.5192 22.5249 17.1926 22.522 15.7577L22.5143 12.002V11.9979L22.522 8.2423C22.5249 6.80737 21.759 5.48081 20.5149 4.7659L17.2586 2.89476L17.255 2.8927L14.0064 1.00821ZM10.9957 2.7382C11.6163 2.3782 12.3822 2.3782 13.0028 2.7382L16.255 4.62475L16.2586 4.6268L19.5184 6.5C20.1405 6.85745 20.5235 7.52073 20.522 8.2382L20.5143 11.9979V12.002L20.522 15.7618C20.5235 16.4792 20.1405 17.1425 19.5184 17.5L16.2586 19.3732L16.255 19.3752L13.0028 21.2618C12.3822 21.6218 11.6163 21.6218 10.9957 21.2618L7.74356 19.3752L4.48012 17.5C3.85804 17.1425 3.4751 16.4792 3.47657 15.7618L3.48428 12.002V11.9979L3.47657 8.23819C3.4751 7.52073 3.85804 6.85745 4.48012 6.5L7.74 4.6268L7.74355 4.62475L10.9957 2.7382Z" fill="#FF8D28"/>
</svg>
