<svg width="24" height="24" viewBox="0 0 24 24" fill="none" xmlns="http://www.w3.org/2000/svg">
<path d="M8.73828 3.93164C10.1194 1.35626 13.8806 1.35618 15.2617 3.93164L21.5732 15.7051C22.8844 18.1512 21.0373 20.9996 18.3115 21H5.68848C2.96255 20.9997 1.11541 18.1513 2.42676 15.7051L8.73828 3.93164ZM13.499 4.87695C12.8721 3.70786 11.1279 3.70793 10.501 4.87695L4.18945 16.6504C3.6357 17.6838 4.3821 18.9998 5.68848 19H18.3115C19.6177 18.9996 20.3642 17.6837 19.8105 16.6504L13.499 4.87695ZM12 15.5C12.6902 15.5001 13.25 16.0597 13.25 16.75C13.25 17.4403 12.6902 17.9999 12 18C11.3096 18 10.75 17.4404 10.75 16.75C10.75 16.0596 11.3096 15.5 12 15.5ZM12 6C12.5522 6.00013 13 6.4478 13 7V14C13 14.5522 12.5522 14.9999 12 15C11.4477 15 11 14.5523 11 14V7C11 6.44772 11.4477 6 12 6Z" fill="#FF383C"/>
</svg>
