<svg width="16" height="16" viewBox="0 0 16 16" fill="none" xmlns="http://www.w3.org/2000/svg">
<path fill-rule="evenodd" clip-rule="evenodd" d="M2.20545 10.7851L6.41289 2.93637C7.08216 1.68788 8.91784 1.68788 9.58711 2.93637L13.7946 10.7851C14.4164 11.9451 13.5517 13.3333 12.2074 13.3333H3.79256C2.44828 13.3333 1.58363 11.9451 2.20545 10.7851ZM8 4C8.36819 4 8.66667 4.29848 8.66667 4.66667V9.33333C8.66667 9.70152 8.36819 10 8 10C7.63181 10 7.33333 9.70152 7.33333 9.33333V4.66667C7.33333 4.29848 7.63181 4 8 4ZM7.16667 11.1667C7.16667 11.6269 7.53976 12 8 12C8.46024 12 8.83333 11.6269 8.83333 11.1667C8.83333 10.7064 8.46024 10.3333 8 10.3333C7.53976 10.3333 7.16667 10.7064 7.16667 11.1667Z" fill="#DD900D"/>
</svg>
