<svg width="32" height="32" viewBox="0 0 32 32" fill="none" xmlns="http://www.w3.org/2000/svg">
<path fill-rule="evenodd" clip-rule="evenodd" d="M16.6238 8.14693C18.5867 8.14693 20.178 9.73821 20.178 11.7011C20.178 13.6641 18.5867 15.2554 16.6238 15.2554C14.6608 15.2554 13.0696 13.6641 13.0696 11.7011C13.0696 9.73821 14.6608 8.14693 16.6238 8.14693ZM17.5113 11.7011C17.5113 11.211 17.114 10.8136 16.6238 10.8136C16.1336 10.8136 15.7362 11.211 15.7362 11.7011C15.7362 12.1913 16.1336 12.5887 16.6238 12.5887C17.114 12.5887 17.5113 12.1913 17.5113 11.7011Z" fill="#475367"/>
<path fill-rule="evenodd" clip-rule="evenodd" d="M4.18604 7.92806C4.18604 4.98254 6.57385 2.59473 9.51937 2.59473H23.7282C26.6737 2.59473 29.0615 4.98254 29.0615 7.92806V15.4742C29.0615 16.2009 28.9162 16.8936 28.6531 17.5249L28.2795 20.2713C28.1316 21.3582 27.6703 22.3152 27.0039 23.072C26.9862 23.1272 26.9648 23.1818 26.9394 23.2356L25.6759 25.9137C24.2543 28.9267 20.449 29.9134 17.7425 27.9707L6.28939 19.7499C6.19292 19.6806 6.10845 19.6009 6.03641 19.5133C4.90325 18.5353 4.18604 17.0885 4.18604 15.4742V7.92806ZM23.7282 20.8076C24.3433 20.8076 24.9341 20.7034 25.4839 20.5118C24.9998 21.7738 23.6075 22.5102 22.246 22.1119L17.7878 20.8076H23.7282ZM7.78574 5.90175C7.21462 6.39084 6.8527 7.11718 6.8527 7.92806V15.4742C6.8527 16.2851 7.21462 17.0115 7.78574 17.5005C7.61726 17.2773 7.51736 16.9994 7.51736 16.6981C7.51736 15.9618 8.11431 15.3648 8.85069 15.3648H11.0716C11.808 15.3648 12.4049 15.9618 12.4049 16.6981C12.4049 17.4345 11.808 18.0315 11.0716 18.0315H8.85069C8.81604 18.0315 8.78169 18.0301 8.7477 18.0275C8.99198 18.1013 9.25105 18.1409 9.51937 18.1409H23.7282C23.9965 18.1409 24.2556 18.1013 24.4999 18.0275C24.4659 18.0301 24.4315 18.0315 24.3969 18.0315H22.176C21.4396 18.0315 20.8427 17.4345 20.8427 16.6981C20.8427 15.9618 21.4396 15.3648 22.176 15.3648H24.3969C25.1333 15.3648 25.7302 15.9618 25.7302 16.6981C25.7302 16.9994 25.6303 17.2773 25.4618 17.5005C26.0329 17.0115 26.3949 16.2851 26.3949 15.4742V7.92806C26.3949 7.11718 26.0329 6.39084 25.4618 5.90175C25.6303 6.12501 25.7302 6.40292 25.7302 6.70416C25.7302 7.44054 25.1333 8.0375 24.3969 8.0375H22.176C21.4396 8.0375 20.8427 7.44054 20.8427 6.70416C20.8427 5.96778 21.4396 5.37083 22.176 5.37083H24.3969C24.4315 5.37083 24.4659 5.37215 24.4999 5.37475C24.2556 5.30102 23.9965 5.26139 23.7282 5.26139H9.51937C9.25105 5.26139 8.99198 5.30102 8.7477 5.37475C8.78169 5.37215 8.81604 5.37083 8.85069 5.37083H11.0716C11.808 5.37083 12.4049 5.96778 12.4049 6.70416C12.4049 7.44054 11.808 8.0375 11.0716 8.0375H8.85069C8.11431 8.0375 7.51736 7.44054 7.51736 6.70416C7.51736 6.40292 7.61726 6.12501 7.78574 5.90175ZM23.2102 24.8839C22.6482 24.9063 22.0714 24.8392 21.4973 24.6713L15.1192 22.8053L19.2974 25.8044C20.6178 26.7521 22.4612 26.3055 23.2102 24.8839Z" fill="#475367"/>
</svg>
