<svg width="24" height="24" viewBox="0 0 24 24" fill="none" xmlns="http://www.w3.org/2000/svg">
<path fill-rule="evenodd" clip-rule="evenodd" d="M12.468 6.1102C13.9402 6.1102 15.1336 7.30366 15.1336 8.77586C15.1336 10.2481 13.9402 11.4415 12.468 11.4415C10.9958 11.4415 9.8023 10.2481 9.8023 8.77586C9.8023 7.30366 10.9958 6.1102 12.468 6.1102ZM13.1336 8.77586C13.1336 8.40823 12.8356 8.1102 12.468 8.1102C12.1003 8.1102 11.8023 8.40823 11.8023 8.77586C11.8023 9.1435 12.1003 9.44152 12.468 9.44152C12.8356 9.44152 13.1336 9.1435 13.1336 8.77586Z" fill="#20C997"/>
<path fill-rule="evenodd" clip-rule="evenodd" d="M3.13965 5.94604C3.13965 3.73691 4.93051 1.94604 7.13965 1.94604H17.7963C20.0054 1.94604 21.7963 3.73691 21.7963 5.94604V11.6057C21.7963 12.1507 21.6873 12.6702 21.4899 13.1436L21.2097 15.2035C21.0988 16.0186 20.7528 16.7364 20.253 17.304C20.2398 17.3454 20.2237 17.3863 20.2047 17.4267L19.257 19.4353C18.1909 21.6951 15.3369 22.4351 13.307 20.9781L4.71716 14.8124C4.64481 14.7605 4.58146 14.7007 4.52743 14.635C3.67756 13.9015 3.13965 12.8164 3.13965 11.6057V5.94604ZM17.7963 15.6057C18.2576 15.6057 18.7007 15.5276 19.1131 15.3839C18.75 16.3303 17.7058 16.8826 16.6847 16.5839L13.341 15.6057H17.7963ZM5.83943 4.42632C5.41109 4.79313 5.13965 5.33789 5.13965 5.94604V11.6057C5.13965 12.2138 5.41109 12.7586 5.83943 13.1254C5.71307 12.958 5.63814 12.7495 5.63814 12.5236C5.63814 11.9713 6.08586 11.5236 6.63814 11.5236H8.3038C8.85609 11.5236 9.3038 11.9713 9.3038 12.5236C9.3038 13.0759 8.85609 13.5236 8.3038 13.5236H6.63814C6.61215 13.5236 6.58639 13.5226 6.5609 13.5207C6.74411 13.576 6.93841 13.6057 7.13965 13.6057H17.7963C17.9975 13.6057 18.1918 13.576 18.375 13.5207C18.3495 13.5226 18.3238 13.5236 18.2978 13.5236H16.6321C16.0798 13.5236 15.6321 13.0759 15.6321 12.5236C15.6321 11.9713 16.0798 11.5236 16.6321 11.5236H18.2978C18.8501 11.5236 19.2978 11.9713 19.2978 12.5236C19.2978 12.7495 19.2229 12.958 19.0965 13.1254C19.5248 12.7586 19.7963 12.2138 19.7963 11.6057V5.94604C19.7963 5.33789 19.5248 4.79313 19.0965 4.42632C19.2229 4.59376 19.2978 4.80219 19.2978 5.02812C19.2978 5.58041 18.8501 6.02812 18.2978 6.02812H16.6321C16.0798 6.02812 15.6321 5.58041 15.6321 5.02812C15.6321 4.47584 16.0798 4.02812 16.6321 4.02812H18.2978C18.3238 4.02812 18.3495 4.02911 18.375 4.03106C18.1918 3.97577 17.9975 3.94604 17.7963 3.94604H7.13965C6.93841 3.94604 6.74411 3.97577 6.5609 4.03106C6.58639 4.02911 6.61215 4.02812 6.63814 4.02812H8.3038C8.85609 4.02812 9.3038 4.47584 9.3038 5.02812C9.3038 5.58041 8.85609 6.02812 8.3038 6.02812H6.63814C6.08586 6.02812 5.63814 5.58041 5.63814 5.02812C5.63814 4.80219 5.71307 4.59376 5.83943 4.42632ZM17.4078 18.6629C16.9863 18.6797 16.5537 18.6294 16.1231 18.5034L11.3395 17.104L14.4732 19.3533C15.4635 20.0641 16.846 19.7291 17.4078 18.6629Z" fill="#20C997"/>
</svg>
