<svg width="32" height="32" viewBox="0 0 32 32" fill="none" xmlns="http://www.w3.org/2000/svg">
<path d="M6.66683 8.66671C5.93045 8.66671 5.3335 9.26366 5.3335 10C5.3335 10.7364 5.93045 11.3334 6.66683 11.3334H9.3335C10.0699 11.3334 10.6668 10.7364 10.6668 10C10.6668 9.26366 10.0699 8.66671 9.3335 8.66671H6.66683Z" fill="#475367"/>
<path d="M21.3335 10C21.3335 9.26366 21.9304 8.66671 22.6668 8.66671H25.3335C26.0699 8.66671 26.6668 9.26366 26.6668 10C26.6668 10.7364 26.0699 11.3334 25.3335 11.3334H22.6668C21.9304 11.3334 21.3335 10.7364 21.3335 10Z" fill="#475367"/>
<path d="M6.66683 20.6667C5.93045 20.6667 5.3335 21.2637 5.3335 22C5.3335 22.7364 5.93045 23.3334 6.66683 23.3334H9.3335C10.0699 23.3334 10.6668 22.7364 10.6668 22C10.6668 21.2637 10.0699 20.6667 9.3335 20.6667H6.66683Z" fill="#475367"/>
<path d="M21.3335 22C21.3335 21.2637 21.9304 20.6667 22.6668 20.6667H25.3335C26.0699 20.6667 26.6668 21.2637 26.6668 22C26.6668 22.7364 26.0699 23.3334 25.3335 23.3334H22.6668C21.9304 23.3334 21.3335 22.7364 21.3335 22Z" fill="#475367"/>
<path fill-rule="evenodd" clip-rule="evenodd" d="M16.0002 12C18.2093 12 20.0002 13.7909 20.0002 16C20.0002 18.2092 18.2093 20 16.0002 20C13.791 20 12.0002 18.2092 12.0002 16C12.0002 13.7909 13.791 12 16.0002 12ZM17.3335 16C17.3335 15.2637 16.7365 14.6667 16.0002 14.6667C15.2638 14.6667 14.6668 15.2637 14.6668 16C14.6668 16.7364 15.2638 17.3334 16.0002 17.3334C16.7365 17.3334 17.3335 16.7364 17.3335 16Z" fill="#475367"/>
<path fill-rule="evenodd" clip-rule="evenodd" d="M6.66683 5.33337C3.72131 5.33337 1.3335 7.72119 1.3335 10.6667V21.3334C1.3335 24.2789 3.72131 26.6667 6.66683 26.6667H25.3335C28.279 26.6667 30.6668 24.2789 30.6668 21.3334V10.6667C30.6668 7.72119 28.279 5.33337 25.3335 5.33337H6.66683ZM4.00016 10.6667C4.00016 9.19395 5.19407 8.00004 6.66683 8.00004H25.3335C26.8063 8.00004 28.0002 9.19395 28.0002 10.6667V21.3334C28.0002 22.8061 26.8063 24 25.3335 24H6.66683C5.19407 24 4.00016 22.8061 4.00016 21.3334V10.6667Z" fill="#475367"/>
</svg>
