<svg width="24" height="24" viewBox="0 0 24 24" fill="none" xmlns="http://www.w3.org/2000/svg">
<path d="M19.6768 4.13477C21.8209 3.91803 23.2164 6.33436 21.957 8.08301L12.8926 20.6631C11.6718 22.357 9.03523 21.8963 8.46094 19.8887L7.34473 15.9883C7.08704 15.087 7.35756 14.131 8.0166 13.498C7.13905 13.7522 6.17698 13.5096 5.52539 12.8359L2.70508 9.91895C1.25376 8.41769 2.17341 5.90337 4.25098 5.69336L19.6768 4.13477ZM9.47168 14.8848C9.29081 15.0054 9.20793 15.2295 9.26758 15.4385L10.3838 19.3389C10.4986 19.7403 11.0263 19.8328 11.2705 19.4941L19.3242 8.31543L9.47168 14.8848ZM4.45215 7.68359C4.03676 7.72558 3.8527 8.22804 4.14258 8.52832L6.96289 11.4453C7.11407 11.6017 7.34898 11.6423 7.54395 11.5459L18.1582 6.29785L4.45215 7.68359Z" fill="white"/>
</svg>
