<svg width="32" height="32" viewBox="0 0 32 32" fill="none" xmlns="http://www.w3.org/2000/svg">
<path d="M10.6667 8.00004C9.93029 8.00004 9.33333 8.59699 9.33333 9.33337C9.33333 10.0698 9.93029 10.6667 10.6667 10.6667H21.3333C22.0697 10.6667 22.6667 10.0698 22.6667 9.33337C22.6667 8.59699 22.0697 8.00004 21.3333 8.00004H10.6667Z" fill="#475367"/>
<path d="M9.33333 16C9.33333 15.2637 9.93029 14.6667 10.6667 14.6667H21.3333C22.0697 14.6667 22.6667 15.2637 22.6667 16C22.6667 16.7364 22.0697 17.3334 21.3333 17.3334H10.6667C9.93029 17.3334 9.33333 16.7364 9.33333 16Z" fill="#475367"/>
<path d="M10.6667 21.3334C9.93029 21.3334 9.33333 21.9303 9.33333 22.6667C9.33333 23.4031 9.93029 24 10.6667 24H14.2222C14.9586 24 15.5556 23.4031 15.5556 22.6667C15.5556 21.9303 14.9586 21.3334 14.2222 21.3334H10.6667Z" fill="#475367"/>
<path d="M17.7778 21.3334C17.0414 21.3334 16.4444 21.9303 16.4444 22.6667C16.4444 23.4031 17.0414 24 17.7778 24H21.3333C22.0697 24 22.6667 23.4031 22.6667 22.6667C22.6667 21.9303 22.0697 21.3334 21.3333 21.3334H17.7778Z" fill="#475367"/>
<path fill-rule="evenodd" clip-rule="evenodd" d="M20.6424 29.2017C20.7923 29.2392 20.9377 29.2929 21.0759 29.362C24.2571 30.9526 28 28.6394 28 25.0827V6.66671C28 3.72119 25.6122 1.33337 22.6667 1.33337H9.33333C6.38781 1.33337 4 3.72119 4 6.66671V25.0827C4 28.6394 7.74293 30.9526 10.9241 29.362C11.0623 29.2929 11.2077 29.2392 11.3576 29.2017L15.3532 28.2028C15.7779 28.0966 16.2221 28.0966 16.6468 28.2028L20.6424 29.2017ZM6.66667 6.66671C6.66667 5.19395 7.86057 4.00004 9.33333 4.00004H22.6667C24.1394 4.00004 25.3333 5.19395 25.3333 6.66671V25.0827C25.3333 26.657 23.6766 27.6809 22.2685 26.9769C21.9562 26.8208 21.6279 26.6993 21.2892 26.6146L17.2935 25.6157C16.4442 25.4034 15.5558 25.4034 14.7065 25.6157L10.7108 26.6146C10.3721 26.6993 10.0438 26.8208 9.73154 26.9769C8.32343 27.6809 6.66667 26.657 6.66667 25.0827V6.66671Z" fill="#475367"/>
</svg>
