<svg width="20" height="20" viewBox="0 0 20 20" fill="none" xmlns="http://www.w3.org/2000/svg">
<path fill-rule="evenodd" clip-rule="evenodd" d="M11.2397 1.68246C10.444 1.36366 9.55602 1.36366 8.7603 1.68246L5.73815 2.89328C5.72875 2.89705 5.71943 2.90099 5.71017 2.90509L4.42056 3.47716C3.28954 3.97887 2.49989 5.08354 2.5 6.36992C2.50014 8.00927 2.61833 10.784 3.38904 12.6879C3.9015 13.9538 4.82447 15.051 5.76253 15.9278C6.70731 16.8109 7.71386 17.5132 8.45422 17.9807C9.40298 18.5798 10.597 18.5798 11.5458 17.9807C12.2861 17.5132 13.2927 16.8109 14.2375 15.9278C15.1755 15.051 16.0985 13.9538 16.611 12.6879C17.3817 10.784 17.4999 8.00927 17.5 6.36992C17.5001 5.08354 16.7105 3.97887 15.5794 3.47716L14.2898 2.90509C14.2806 2.90099 14.2712 2.89705 14.2618 2.89328L11.2397 1.68246ZM9.38015 3.22958C9.77801 3.07018 10.222 3.07018 10.6198 3.22958L13.6279 4.43475L14.9036 5.00066C15.4776 5.25528 15.8334 5.7909 15.8333 6.36978C15.8332 8.02046 15.7013 10.4934 15.0661 12.0625C14.6811 13.0135 13.9489 13.9161 13.0994 14.7102C12.2565 15.498 11.343 16.1377 10.6559 16.5715C10.2508 16.8273 9.74924 16.8273 9.34406 16.5715C8.65702 16.1377 7.74346 15.498 6.90062 14.7102C6.05106 13.9161 5.3189 13.0135 4.93392 12.0625C4.29872 10.4934 4.16681 8.02046 4.16667 6.36978C4.16662 5.7909 4.52237 5.25528 5.09638 5.00066L6.37211 4.43475L9.38015 3.22958Z" fill="#667185"/>
</svg>
