<svg width="25" height="24" viewBox="0 0 25 24" fill="none" xmlns="http://www.w3.org/2000/svg">
<path fill-rule="evenodd" clip-rule="evenodd" d="M7.5 7C7.5 4.23858 9.73858 2 12.5 2C15.2614 2 17.5 4.23858 17.5 7C17.5 9.76142 15.2614 12 12.5 12C9.73858 12 7.5 9.76142 7.5 7ZM12.5 4C10.8431 4 9.5 5.34315 9.5 7C9.5 8.65685 10.8431 10 12.5 10C14.1569 10 15.5 8.65685 15.5 7C15.5 5.34315 14.1569 4 12.5 4Z" fill="white"/>
<path fill-rule="evenodd" clip-rule="evenodd" d="M7.05543 21.9174C8.72982 22.6502 10.9595 23 12.5 23C14.0405 23 16.2702 22.6502 17.9446 21.9174C18.7666 21.5576 19.6025 21.0427 20.0882 20.2974C20.3437 19.9054 20.5052 19.4437 20.4999 18.9282C20.4946 18.4174 20.3266 17.9281 20.0441 17.4728C18.6747 15.2656 15.8732 13 12.5 13C9.12679 13 6.32532 15.2656 4.95591 17.4728C4.67344 17.9281 4.50537 18.4174 4.50013 18.9282C4.49483 19.4437 4.65632 19.9054 4.91175 20.2974C5.39745 21.0427 6.23343 21.5576 7.05543 21.9174ZM6.50002 18.9487C6.50077 18.8757 6.52372 18.7394 6.65539 18.5272C7.77754 16.7185 10.0157 15 12.5 15C14.9843 15 17.2225 16.7185 18.3446 18.5272C18.4763 18.7394 18.4992 18.8757 18.5 18.9487C18.5007 19.017 18.4831 19.0973 18.4126 19.2055C18.2465 19.4605 17.8429 19.7787 17.1427 20.0852C15.7726 20.6848 13.8268 21 12.5 21C11.1732 21 9.22744 20.6848 7.85732 20.0852C7.15707 19.7787 6.75354 19.4605 6.58736 19.2055C6.51686 19.0973 6.49932 19.017 6.50002 18.9487Z" fill="white"/>
<path d="M21.5 3C21.5 2.44772 21.0523 2 20.5 2C19.9477 2 19.5 2.44772 19.5 3V4H18.5C17.9477 4 17.5 4.44772 17.5 5C17.5 5.55228 17.9477 6 18.5 6H19.5V7C19.5 7.55228 19.9477 8 20.5 8C21.0523 8 21.5 7.55228 21.5 7V6H22.5C23.0523 6 23.5 5.55228 23.5 5C23.5 4.44772 23.0523 4 22.5 4H21.5V3Z" fill="white"/>
</svg>
