<svg width="32" height="32" viewBox="0 0 32 32" fill="none" xmlns="http://www.w3.org/2000/svg">
<path fill-rule="evenodd" clip-rule="evenodd" d="M16 6.66663C13.0545 6.66663 10.6666 9.05444 10.6666 12C10.6666 14.9455 13.0545 17.3333 16 17.3333C18.9455 17.3333 21.3333 14.9455 21.3333 12C21.3333 9.05444 18.9455 6.66663 16 6.66663ZM13.3333 12C13.3333 10.5272 14.5272 9.33329 16 9.33329C17.4727 9.33329 18.6666 10.5272 18.6666 12C18.6666 13.4727 17.4727 14.6666 16 14.6666C14.5272 14.6666 13.3333 13.4727 13.3333 12Z" fill="#475367"/>
<path fill-rule="evenodd" clip-rule="evenodd" d="M16 29.3333C14.4841 29.3333 12.2985 28.975 10.6398 28.2128C9.8261 27.8388 8.95306 27.2843 8.43809 26.4545C8.16624 26.0165 7.99448 25.5001 8.0001 24.9254C8.00567 24.3562 8.18418 23.8164 8.47649 23.3217C9.81312 21.0596 12.586 18.6666 16 18.6666C19.4139 18.6666 22.1868 21.0596 23.5235 23.3217C23.8158 23.8164 23.9943 24.3562 23.9998 24.9254C24.0055 25.5001 23.8337 26.0165 23.5618 26.4545C23.0469 27.2843 22.1738 27.8388 21.3602 28.2128C19.7015 28.975 17.5158 29.3333 16 29.3333ZM10.7723 24.6782C10.6702 24.8511 10.6668 24.9369 10.6666 24.9515C10.6665 24.9611 10.6662 24.9876 10.7039 25.0483C10.8097 25.2189 11.1172 25.4974 11.7533 25.7897C12.9941 26.3599 14.7851 26.6666 16 26.6666C17.2148 26.6666 19.0058 26.3599 20.2467 25.7897C20.8828 25.4974 21.1902 25.2189 21.2961 25.0483C21.3337 24.9876 21.3334 24.9618 21.3333 24.9521C21.3332 24.9375 21.3297 24.8511 21.2276 24.6782C20.1913 22.9245 18.1646 21.3333 16 21.3333C13.8353 21.3333 11.8086 22.9245 10.7723 24.6782Z" fill="#475367"/>
<path fill-rule="evenodd" clip-rule="evenodd" d="M3.3333 16C3.3333 13.7908 5.12416 12 7.3333 12C9.54244 12 11.3333 13.7908 11.3333 16C11.3333 18.2091 9.54244 20 7.3333 20C5.12416 20 3.3333 18.2091 3.3333 16ZM7.3333 14.6666C6.59692 14.6666 5.99997 15.2636 5.99997 16C5.99997 16.7363 6.59692 17.3333 7.3333 17.3333C8.06968 17.3333 8.66664 16.7363 8.66664 16C8.66664 15.2636 8.06968 14.6666 7.3333 14.6666Z" fill="#475367"/>
<path d="M3.86095 25.9261C3.53356 26.5857 2.73345 26.855 2.07385 26.5276C1.41425 26.2002 1.14494 25.4001 1.47233 24.7405C1.96217 23.7536 2.7036 22.7627 3.6363 22.0045C4.56936 21.2461 5.76499 20.6666 7.12953 20.6666C7.86591 20.6666 8.46287 21.2636 8.46287 22C8.46287 22.7363 7.86591 23.3333 7.12953 23.3333C6.54156 23.3333 5.921 23.5839 5.31837 24.0738C4.71538 24.5639 4.20162 25.2397 3.86095 25.9261Z" fill="#475367"/>
<path fill-rule="evenodd" clip-rule="evenodd" d="M21.08 16C21.08 13.7908 22.8709 12 25.08 12C27.2892 12 29.08 13.7908 29.08 16C29.08 18.2091 27.2892 20 25.08 20C22.8709 20 21.08 18.2091 21.08 16ZM25.08 14.6666C24.3437 14.6666 23.7467 15.2636 23.7467 16C23.7467 16.7363 24.3437 17.3333 25.08 17.3333C25.8164 17.3333 26.4134 16.7363 26.4134 16C26.4134 15.2636 25.8164 14.6666 25.08 14.6666Z" fill="#475367"/>
<path d="M30.5335 24.7405C30.8609 25.4001 30.5916 26.2002 29.932 26.5276C29.2724 26.855 28.4722 26.5857 28.1449 25.9261C27.8042 25.2397 27.2904 24.5639 26.6874 24.0738C26.0848 23.5839 25.4642 23.3333 24.8763 23.3333C24.1399 23.3333 23.5429 22.7363 23.5429 22C23.5429 21.2636 24.1399 20.6666 24.8763 20.6666C26.2408 20.6666 27.4364 21.2461 28.3695 22.0045C29.3022 22.7627 30.0436 23.7536 30.5335 24.7405Z" fill="#475367"/>
</svg>
