<svg width="24" height="24" viewBox="0 0 24 24" fill="none" xmlns="http://www.w3.org/2000/svg">
<path fill-rule="evenodd" clip-rule="evenodd" d="M14 3C10.6863 3 8.00001 5.68629 8.00001 9C8.00001 12.3137 10.6863 15 14 15C17.3137 15 20 12.3137 20 9C20 5.68629 17.3137 3 14 3ZM10 9C10 6.79086 11.7909 5 14 5C16.2092 5 18 6.79086 18 9C18 11.2091 16.2092 13 14 13C11.7909 13 10 11.2091 10 9Z" fill="#C120C9"/>
<path d="M8.15542 20.5272C7.86425 20.9965 7.24777 21.1409 6.77847 20.8497C6.30918 20.5586 6.16477 19.9421 6.45594 19.4728C7.82534 17.2656 10.6268 15 14 15C17.3732 15 20.1747 17.2656 21.5441 19.4728C21.8353 19.9421 21.6909 20.5586 21.2216 20.8497C20.7523 21.1409 20.1358 20.9965 19.8446 20.5272C18.7225 18.7185 16.4844 17 14 17C11.5157 17 9.27757 18.7185 8.15542 20.5272Z" fill="#C120C9"/>
<path d="M7.89787 6.55972C8.14104 7.05559 7.93617 7.6547 7.4403 7.89786C6.53163 8.34344 6.00001 9.15179 6.00001 10C6.00001 10.8482 6.53163 11.6566 7.4403 12.1021C7.93617 12.3453 8.14104 12.9444 7.89787 13.4403C7.65471 13.9362 7.0556 14.141 6.55973 13.8979C5.08293 13.1737 4.00001 11.7335 4.00001 10C4.00001 8.26647 5.08293 6.82632 6.55973 6.10214C7.0556 5.85898 7.65471 6.06384 7.89787 6.55972Z" fill="#C120C9"/>
<path d="M4.15542 20.5272C3.86425 20.9965 3.24777 21.1409 2.77847 20.8497C2.30918 20.5586 2.16477 19.9421 2.45594 19.4728C3.03503 18.5394 3.96157 17.7604 4.99525 17.1559C5.47201 16.8772 6.0845 17.0377 6.36328 17.5144C6.64206 17.9912 6.48156 18.6037 6.0048 18.8824C5.1411 19.3875 4.50563 19.9627 4.15542 20.5272Z" fill="#C120C9"/>
</svg>
