<svg width="12" height="13" viewBox="0 0 12 13" fill="none" xmlns="http://www.w3.org/2000/svg">
<path fill-rule="evenodd" clip-rule="evenodd" d="M6 1.5C4.61929 1.5 3.5 2.61929 3.5 4C3.5 5.38071 4.61929 6.5 6 6.5C7.38071 6.5 8.5 5.38071 8.5 4C8.5 2.61929 7.38071 1.5 6 1.5ZM4.5 4C4.5 3.17157 5.17157 2.5 6 2.5C6.82843 2.5 7.5 3.17157 7.5 4C7.5 4.82843 6.82843 5.5 6 5.5C5.17157 5.5 4.5 4.82843 4.5 4Z" fill="#344054"/>
<path fill-rule="evenodd" clip-rule="evenodd" d="M6 12C5.22975 12 4.11491 11.8251 3.27771 11.4587C2.86672 11.2788 2.44873 11.0214 2.20588 10.6487C2.07816 10.4527 1.99742 10.2219 2.00006 9.96411C2.00269 9.70872 2.08672 9.46404 2.22796 9.2364C2.91266 8.13281 4.3134 7 6 7C7.6866 7 9.08734 8.13281 9.77204 9.2364C9.91328 9.46404 9.99732 9.70872 9.99994 9.96411C10.0026 10.2219 9.92184 10.4527 9.79412 10.6487C9.55127 11.0214 9.13328 11.2788 8.72228 11.4587C7.88509 11.8251 6.77025 12 6 12ZM3.0777 9.7636C3.01186 9.86972 3.00039 9.93786 3.00001 9.97437C2.99966 10.0085 3.00843 10.0486 3.04368 10.1027C3.12677 10.2302 3.32854 10.3893 3.67866 10.5426C4.36372 10.8424 5.33662 11 6 11C6.66338 11 7.63628 10.8424 8.32134 10.5426C8.67146 10.3893 8.87323 10.2302 8.95632 10.1027C8.99157 10.0486 9.00034 10.0085 8.99999 9.97437C8.99962 9.93786 8.98814 9.86972 8.9223 9.7636C8.36123 8.85927 7.24217 8 6 8C4.75783 8 3.63877 8.85927 3.0777 9.7636Z" fill="#344054"/>
</svg>
