<svg width="32" height="32" viewBox="0 0 32 32" fill="none" xmlns="http://www.w3.org/2000/svg">
<path fill-rule="evenodd" clip-rule="evenodd" d="M18.4078 3.66362C17.0648 2.3644 14.9334 2.3644 13.5904 3.66362C12.8224 4.40657 11.7545 4.75354 10.6965 4.60389C8.84637 4.3422 7.12205 5.59499 6.7992 7.43547C6.61458 8.48794 5.95461 9.39632 5.0107 9.89714C3.36006 10.7729 2.70143 12.8 3.52205 14.4787C3.99132 15.4387 3.99132 16.5615 3.52205 17.5215C2.70143 19.2003 3.36006 21.2273 5.0107 22.1031C5.95461 22.6039 6.61458 23.5123 6.7992 24.5648C7.12205 26.4053 8.84637 27.658 10.6965 27.3964C11.7545 27.2467 12.8224 27.5937 13.5904 28.3366C14.9334 29.6358 17.0648 29.6358 18.4078 28.3366C19.1758 27.5937 20.2436 27.2467 21.3016 27.3964C23.1518 27.658 24.8761 26.4053 25.199 24.5648C25.3836 23.5123 26.0436 22.6039 26.9875 22.1031C28.6381 21.2273 29.2967 19.2003 28.4761 17.5215C28.0068 16.5615 28.0068 15.4387 28.4761 14.4787C29.2967 12.8 28.6381 10.7729 26.9875 9.89714C26.0436 9.39632 25.3836 8.48794 25.199 7.43547C24.8761 5.59499 23.1518 4.3422 21.3016 4.60389C20.2436 4.75354 19.1758 4.40657 18.4078 3.66362ZM22.2892 12.9287C22.8021 12.4003 22.7895 11.5562 22.261 11.0433C21.7326 10.5305 20.8885 10.5431 20.3756 11.0715L13.568 18.0857L11.6225 16.0812C11.1097 15.5528 10.2656 15.5401 9.73713 16.053C9.20871 16.5659 9.1961 17.41 9.70895 17.9384L12.6112 20.9287C12.8623 21.1875 13.2075 21.3335 13.568 21.3335C13.9285 21.3335 14.2737 21.1875 14.5248 20.9287L22.2892 12.9287Z" fill="#34C759"/>
</svg>
